HIERARCHY
ROOT SpineBase
{
  OFFSET 0.000000 0.000000 0.000000
  CHANNELS 6 Xposition Yposition Zposition Zrotation Xrotation Yrotation
  JOINT SpineMid
  {
    OFFSET 0.000000 31.216847 -0.000000
    CHANNELS 3 Zrotation Xrotation Yrotation
    JOINT SpineShoulder
    {
      OFFSET -0.093752 23.154198 -0.801369
      CHANNELS 3 Zrotation Xrotation Yrotation
      JOINT Neck
      {
        OFFSET -0.071693 7.651510 -0.602158
        CHANNELS 3 Zrotation Xrotation Yrotation
        JOINT Head
        {
          OFFSET 2.269600 14.703557 -2.333336
          CHANNELS 3 Zrotation Xrotation Yrotation
          End Site
          {
            OFFSET 0 0 0
          }
        }
      }
      JOINT ShoulderLeft
      {
        OFFSET -18.347984 -2.600814 -1.516721
        CHANNELS 3 Zrotation Xrotation Yrotation
        JOINT ElbowLeft
        {
          OFFSET -5.458400 -25.201541 1.317577
          CHANNELS 3 Zrotation Xrotation Yrotation
          JOINT WristLeft
          {
            OFFSET 1.151694 -21.760053 -7.547319
            CHANNELS 3 Zrotation Xrotation Yrotation
            JOINT HandLeft
            {
              OFFSET 1.738056 -5.651337 -2.460705
              CHANNELS 3 Zrotation Xrotation Yrotation
              JOINT HandTipLeft
              {
                OFFSET 0.365665 -6.876985 -1.006033
                CHANNELS 3 Zrotation Xrotation Yrotation
                End Site
                {
                  OFFSET 0 0 0
                }
              }
              JOINT ThumbLeft
              {
                OFFSET -3.537632 -0.184910 -1.326370
                CHANNELS 3 Zrotation Xrotation Yrotation
                End Site
                {
                  OFFSET 0 0 0
                }
              }
            }
          }
        }
      }
      JOINT ShoulderRight
      {
        OFFSET 19.043520 -3.997547 -2.416367
        CHANNELS 3 Zrotation Xrotation Yrotation
        JOINT ElbowRight
        {
          OFFSET 2.841606 -24.854007 2.065242
          CHANNELS 3 Zrotation Xrotation Yrotation
          JOINT WristRight
          {
            OFFSET 0.318665 -19.222696 -8.369463
            CHANNELS 3 Zrotation Xrotation Yrotation
            JOINT HandRight
            {
              OFFSET -3.423694 -8.374932 -1.048264
              CHANNELS 3 Zrotation Xrotation Yrotation
              JOINT HandTipRight
              {
                OFFSET 0.101489 -6.141357 -2.331332
                CHANNELS 3 Zrotation Xrotation Yrotation
                End Site
                {
                  OFFSET 0 0 0
                }
              }
              JOINT ThumbRight
              {
                OFFSET 1.334444 -0.788097 -6.023897
                CHANNELS 3 Zrotation Xrotation Yrotation
                End Site
                {
                  OFFSET 0 0 0
                }
              }
            }
          }
        }
      }
    }
  }
  JOINT HipLeft
  {
    OFFSET -8.549179 0.913936 -3.557750
    CHANNELS 3 Zrotation Xrotation Yrotation
    JOINT KneeLeft
    {
      OFFSET -3.011579 -33.493525 1.120131
      CHANNELS 3 Zrotation Xrotation Yrotation
      JOINT AnkleLeft
      {
        OFFSET 2.254346 -33.899938 13.491175
        CHANNELS 3 Zrotation Xrotation Yrotation
        JOINT FootLeft
        {
          OFFSET 0.335846 -5.575165 -5.261790
          CHANNELS 3 Zrotation Xrotation Yrotation
          End Site
          {
            OFFSET 0 0 0
          }
        }
      }
    }
  }
  JOINT HipRight
  {
    OFFSET 7.650721 0.916039 -3.548811
    CHANNELS 3 Zrotation Xrotation Yrotation
    JOINT KneeRight
    {
      OFFSET -0.141849 -33.588292 0.164963
      CHANNELS 3 Zrotation Xrotation Yrotation
      JOINT AnkleRight
      {
        OFFSET -1.568925 -33.715573 5.663932
        CHANNELS 3 Zrotation Xrotation Yrotation
        JOINT FootRight
        {
          OFFSET -1.495585 -6.155133 -5.241448
          CHANNELS 3 Zrotation Xrotation Yrotation
          End Site
          {
            OFFSET 0 0 0
          }
        }
      }
    }
  }
}
MOTION
Frames: 12
Frame Time: 0.033333
37.389383 73.464912 311.402768 -0.895930 -2.522231 2.817215 -0.335272 -0.166987 -2.884891 -0.089382 0.061871 -0.071746 1.856572 5.282425 -0.261003 0.000000 0.000000 0.000000 2.699379 2.684258 0.097892 -0.746687 -3.732672 -0.469545 -1.118829 -5.073543 -2.124217 0.706679 2.515091 2.116416 0.000000 0.000000 0.000000 0.000000 0.000000 0.000000 0.820408 -0.448108 -0.287010 -0.119426 -10.049753 0.424981 1.713791 42.181369 -12.472506 -2.484320 -18.586745 12.147790 0.000000 0.000000 0.000000 0.000000 0.000000 0.000000 6.688661 -8.208701 -1.426747 -5.323986 16.261951 -0.113355 -0.289918 -3.676979 -0.863008 0.000000 0.000000 0.000000 6.412981 12.128391 -3.565736 1.404130 -9.521384 1.677085 -3.926216 11.696113 -5.535505 0.000000 0.000000 0.000000
37.565767 73.254035 310.158021 -1.652026 -3.457165 4.860702 -0.300269 -0.067963 -4.984825 -0.036131 0.031033 -0.105176 3.543000 5.535104 -0.057508 0.000000 0.000000 0.000000 3.201293 2.467519 0.357772 -1.925896 -3.481421 -0.302610 -0.673238 -4.264264 -2.227007 0.525171 1.498491 1.893180 0.000000 0.000000 0.000000 0.000000 0.000000 0.000000 0.126612 -0.157511 -0.392281 2.480590 -12.365093 0.042217 -0.648546 46.380780 -11.681400 -1.007567 -18.528123 12.741509 0.000000 0.000000 0.000000 0.000000 0.000000 0.000000 7.319298 -8.252258 -3.520380 -5.964546 15.976241 -0.269227 -0.460426 -1.323170 0.061961 0.000000 0.000000 0.000000 7.761108 11.874840 -5.751883 1.449612 -8.230541 1.624004 -4.894652 9.331358 -4.494900 0.000000 0.000000 0.000000
37.778555 73.085452 308.673448 -2.431058 -4.588683 7.573133 -0.253217 -0.051260 -7.773947 0.013975 0.245325 -0.133596 5.704188 5.153203 0.267739 0.000000 0.000000 0.000000 3.798596 2.175066 0.632530 -3.248477 -3.351562 -0.123073 0.584095 -3.017705 -2.606935 0.360804 0.020821 1.780046 0.000000 0.000000 0.000000 0.000000 0.000000 0.000000 -0.677398 0.932036 -0.373783 4.999147 -15.277617 -0.290929 -1.632236 47.936469 -10.686039 -2.335800 -17.999940 12.185478 0.000000 0.000000 0.000000 0.000000 0.000000 0.000000 7.986806 -8.281090 -6.322612 -6.602922 15.775514 -0.393337 -1.284424 0.198095 1.387481 0.000000 0.000000 0.000000 9.361396 11.139488 -8.638692 1.134113 -7.038832 1.513984 -5.926911 1.746378 -1.955529 0.000000 0.000000 0.000000
38.002893 72.983527 307.057684 -3.061681 -5.776249 9.985415 -0.176618 -0.026123 -10.267953 0.098911 0.444869 -0.153344 7.601208 4.815989 0.553951 0.000000 0.000000 0.000000 4.319497 1.814182 0.914332 -4.462987 -2.989023 -0.005737 1.845375 -2.421187 -3.212446 0.304834 -1.285609 1.862100 0.000000 0.000000 0.000000 0.000000 0.000000 0.000000 -1.573934 2.887415 -0.188497 6.257603 -16.703652 -0.227126 0.589348 44.243012 -10.416908 -4.471110 -18.018067 10.480869 0.000000 0.000000 0.000000 0.000000 0.000000 0.000000 8.677132 -8.334168 -8.830550 -7.289815 15.605282 -0.492932 -2.727561 1.181391 3.172757 0.000000 0.000000 0.000000 10.782998 10.037586 -11.212767 0.437062 -5.858705 1.350961 -6.596587 0.499349 -0.718828 0.000000 0.000000 0.000000
38.192314 72.960102 305.573962 -3.606076 -6.407550 12.112727 -0.140665 -0.151047 -12.469049 0.216809 0.480717 -0.173510 9.433635 3.307370 1.039452 0.000000 0.000000 0.000000 4.865247 1.338532 1.164849 -5.407952 -2.644822 0.026004 2.600032 -1.993418 -3.641796 0.400032 -2.235806 1.913013 0.000000 0.000000 0.000000 0.000000 0.000000 0.000000 -2.254493 5.486553 0.179456 6.844623 -17.984517 -0.100680 3.382929 37.101477 -9.281543 -6.029813 -17.587232 7.992308 0.000000 0.000000 0.000000 0.000000 0.000000 0.000000 9.338067 -8.893078 -10.980097 -7.938326 15.789505 -0.525035 -4.341999 1.052420 4.879699 0.000000 0.000000 0.000000 11.972343 8.092724 -13.374676 -0.663198 -4.789808 1.172292 -7.286734 3.447028 -0.054260 0.000000 0.000000 0.000000
38.317117 73.003191 304.071992 -3.876348 -7.397538 13.464626 -0.114907 -0.172863 -13.884061 0.264365 0.579194 -0.185312 10.455815 1.741666 1.508591 0.000000 0.000000 0.000000 5.539068 0.743952 1.464790 -6.266420 -2.169422 -0.122169 3.467999 -1.914043 -4.351418 -0.175641 -2.442880 2.467710 0.000000 0.000000 0.000000 0.000000 0.000000 0.000000 -2.984369 7.966268 0.559554 7.604243 -19.385867 -0.055877 4.559624 30.491745 -7.075112 -6.169747 -15.821658 5.519254 0.000000 0.000000 0.000000 0.000000 0.000000 0.000000 9.957129 -9.109601 -12.380564 -8.511952 16.289122 -0.509023 -6.091158 -0.050259 6.452071 0.000000 0.000000 0.000000 12.715345 6.999145 -14.827368 -1.399747 -3.998090 1.100875 -7.827879 2.909243 1.029658 0.000000 0.000000 0.000000
38.393770 73.137466 302.786694 -3.893104 -8.061123 14.159884 -0.022326 -0.179619 -14.608434 0.294289 0.523482 -0.189193 10.325496 -0.192278 1.966313 0.000000 0.000000 0.000000 5.975320 -0.356588 1.840489 -6.596552 -1.111580 -0.487137 3.782671 -3.619718 -5.385132 -0.115060 -0.322482 3.442000 0.000000 0.000000 0.000000 0.000000 0.000000 0.000000 -3.866387 10.285146 0.964865 8.168525 -20.965198 -0.002184 6.108207 25.042553 -5.423538 -7.033044 -15.210928 3.459502 0.000000 0.000000 0.000000 0.000000 0.000000 0.000000 10.394002 -9.331032 -13.076793 -8.934230 16.774581 -0.457164 -6.412701 -6.119386 6.167058 0.000000 0.000000 0.000000 13.043247 6.481092 -15.594891 -1.792918 -4.148644 1.141444 -8.367430 2.788898 1.924768 0.000000 0.000000 0.000000
38.351655 73.240587 301.349797 -3.770577 -9.302936 14.557484 -0.012562 -0.151519 -15.038161 0.236234 0.512246 -0.193281 10.315424 -0.989749 2.228191 0.000000 0.000000 0.000000 6.748237 -1.312616 2.272573 -7.179121 -0.189487 -0.944867 3.169314 -3.031726 -5.309475 1.537405 0.901977 3.128947 0.000000 0.000000 0.000000 0.000000 0.000000 0.000000 -4.189946 11.584447 1.135656 8.360958 -21.624787 0.020375 6.211060 21.117550 -3.415225 -6.819305 -12.272313 1.637307 0.000000 0.000000 0.000000 0.000000 0.000000 0.000000 10.638494 -8.587630 -13.623035 -8.753048 16.683189 -0.419740 -7.748495 -8.425366 6.703722 0.000000 0.000000 0.000000 13.324477 6.887630 -16.202959 -1.929231 -4.772537 1.249171 -8.445674 3.124180 2.232909 0.000000 0.000000 0.000000
38.176043 73.305711 300.021181 -3.488066 -10.487482 14.111328 0.003337 -0.112050 -14.598877 0.137443 0.478071 -0.189498 9.931467 -1.127380 2.326815 0.000000 0.000000 0.000000 7.345078 -2.492772 2.755308 -7.896392 1.107022 -1.286560 2.296476 -2.252806 -4.932156 3.575722 3.690507 2.453350 0.000000 0.000000 0.000000 0.000000 0.000000 0.000000 -4.686825 13.256651 1.399651 8.509382 -22.350849 0.053642 6.434168 17.924321 -1.939310 -6.409197 -9.723872 0.153202 0.000000 0.000000 0.000000 0.000000 0.000000 0.000000 10.759287 -7.487307 -13.333930 -8.304223 16.322175 -0.383466 -10.744084 -1.829422 9.350915 0.000000 0.000000 0.000000 13.519725 8.281158 -16.036434 -1.990815 -6.394733 1.409334 -8.649343 3.380459 2.711492 0.000000 0.000000 0.000000
37.999792 73.294717 298.646018 -3.299786 -11.904162 13.912150 0.023842 -0.026684 -14.419827 0.109103 0.523176 -0.187776 9.940938 -0.723656 2.352401 0.000000 0.000000 0.000000 7.881613 -3.490308 3.214289 -8.994160 2.160361 -1.368728 1.677861 0.038523 -4.110737 5.532205 3.988995 1.340023 0.000000 0.000000 0.000000 0.000000 0.000000 0.000000 -5.461565 14.754843 1.687889 9.001995 -22.362699 0.127593 6.055503 13.184707 0.389155 -5.143581 -4.068242 -2.009239 0.000000 0.000000 0.000000 0.000000 0.000000 0.000000 10.742727 -5.818887 -13.395900 -7.182598 14.294241 -0.393666 -12.988748 3.959492 11.089561 0.000000 0.000000 0.000000 13.749075 9.815184 -16.158147 -1.898980 -8.043070 1.580758 -8.946569 3.815065 3.266219 0.000000 0.000000 0.000000
37.633208 73.165946 297.150024 -3.048918 -13.111021 13.596837 0.052459 0.059544 -14.105013 0.075759 0.490937 -0.184092 10.203375 -0.020824 2.320588 0.000000 0.000000 0.000000 8.125415 -4.582702 3.684999 -10.018048 3.470692 -1.288202 0.714030 2.259782 -2.940713 7.022667 6.848280 0.279745 0.000000 0.000000 0.000000 0.000000 0.000000 0.000000 -5.946337 15.083344 1.730375 9.194331 -22.125771 0.186817 5.930563 14.085924 0.224730 -5.264478 -5.925664 -1.818829 0.000000 0.000000 0.000000 0.000000 0.000000 0.000000 10.245622 -3.159888 -13.415432 -5.004271 10.977671 -0.301238 -15.084773 8.925749 12.189422 0.000000 0.000000 0.000000 14.046127 11.138595 -16.145177 -2.014622 -9.664005 1.751154 -9.154843 4.118813 3.770798 0.000000 0.000000 0.000000
37.243940 72.988818 295.899979 -2.788503 -14.082162 12.994884 0.092886 0.156520 -13.491195 0.034365 0.335401 -0.181150 10.411024 0.810358 2.238781 0.000000 0.000000 0.000000 8.119468 -5.461254 4.087862 -10.790911 4.599062 -1.143293 -1.672617 4.302133 -0.816694 8.048643 7.167072 -0.975698 0.000000 0.000000 0.000000 0.000000 0.000000 0.000000 -7.164813 15.931250 2.022787 10.124468 -22.526947 0.291550 5.837636 14.516753 0.270134 -5.516516 -4.582998 -1.713882 0.000000 0.000000 0.000000 0.000000 0.000000 0.000000 9.335090 -0.188029 -13.097823 -2.448198 7.251173 -0.089959 -15.810229 13.051772 11.948951 0.000000 0.000000 0.000000 14.272893 12.507251 -15.825724 -2.182671 -11.234255 1.896689 -9.127493 4.301045 4.042803 0.000000 0.000000 0.000000
